# xmcd
#
# Track frame offsets: 
#        150
#        12193
#        27423
#        42109
#        60396
#        73060
#        93946
#        109476
#        129397
#
# Disc length: 1903 seconds
#
# Revision: 0
# Processed by: cddbd v1.5.2PL0 Copyright (c) Steve Scherf et al.
# Submitted via: ExactAudioCopy v1.3
#
DISCID=72076d09
DTITLE=Jimmy Haggard - Rough 'n' Ready
DYEAR=2019
DGENRE=Blues Rock
TTITLE0=Double Trouble
TTITLE1=Give Me Sugar
TTITLE2=Good Time Tonight
TTITLE3=Hit Rock Bottom
TTITLE4=Love Me Baby
TTITLE5=Love Can Be Found
TTITLE6=Goin Back
TTITLE7=Got News About You
TTITLE8=Rough 'n' Ready
EXTD=
EXTT0=
EXTT1=
EXTT2=
EXTT3=
EXTT4=
EXTT5=
EXTT6=
EXTT7=
EXTT8=
PLAYORDER=
